<svg xmlns="http://www.w3.org/2000/svg" xmlns:xlink="http://www.w3.org/1999/xlink" class="icon" viewBox="0 0 1024 1024"
     width="432" height="432" id="svgcontent" overflow="visible" x="432" y="432">
    <defs>
        <style type="text/css"></style>
    </defs>
    <g style="pointer-events:all">
        <title style="pointer-events:inherit">Layer 1</title>
        <path d="M95.4830004940912,395.4064608241933 L277.6966048126504,513.3158518029909 L95.4830004940912,629.0205599087161 L95.4830004940912,805.883227662065 L488.89801004841775,513.3158518029909 L95.4830004940912,216.3410018175686 L95.4830004940912,395.4064608241933 z"
              fill="#36495d" id="svg_0" fill-opacity="1" stroke-opacity="1" stroke="none"></path>
        <path d="M482.370346613692,513.8876997845693 L95.48200067953935,219.59100519830102 L95.48200067953935,58.5603426838394 L677.8513259482849,513.8857933968707 L95.48200067953935,963.6588899376807 L95.48200067953935,804.8501222859569 L482.370346613692,513.8857933968707 L482.370346613692,513.8876997845693 z"
              fill="#2294FE" id="svg_1" fill-opacity="1" stroke-opacity="1" stroke="none"></path>
        <path d="M782.0347535600581,653.9620209040665 L211.3732253618159,980.4500247492814 L661.4870327348627,534.4394711604143 L782.0347535600581,653.9620209040665 "
              fill="#47b784" id="svg_2" fill-opacity="1" stroke-opacity="1"
              transform="rotate(6.778584957122803 496.7040100097664,757.4447631835934) " stroke="none"></path>
        <path d="M947.6788076750486,433.194096045822 C967.2578530852048,452.5075386878311 978.593089901611,481.8106930412239 978.593089901611,513.7777705176527 C979.1083279387204,545.0788672133224 967.7730911223142,574.3820215667155 948.7092837492673,593.6954642087246 L827.6283450285642,682.9368888304215 L695.7274075285643,513.7777705176527 L827.6283450285642,344.618652204884 L947.6788076750486,433.194096045822 "
              fill="#2294FE" id="svg_3" fill-opacity="1" stroke-opacity="1" stroke="none"></path>
        <path d="M213.619110234583,43.65917235380082 L780.3814957326299,368.68594750028524 L660.6574378713018,487.6735624905196 L213.619110234583,43.65917235380082 z"
              fill="#47b784" id="svg_4" fill-opacity="1" stroke-opacity="1"
              transform="rotate(-7.807453632354736 497.0002746582036,265.6663818359373) " stroke="none"></path>
    </g>
</svg>